<svg width="120.000000" height="24.000000" viewBox="0 0 120 24" fill="none" xmlns="http://www.w3.org/2000/svg" xmlns:xlink="http://www.w3.org/1999/xlink">
	<defs/>
	<circle id="Ellipse 2" cx="25.000000" cy="12.000000" r="12.000000" fill="#ECEFF2" fill-opacity="1.000000"/>
	<circle id="Ellipse 1" cx="12.000000" cy="12.000000" r="12.000000" fill="#2A6CEA" fill-opacity="1.000000"/>
	<path id="test" d="M93.04 19L84.52 19L84.52 4.45L86.28 4.45L86.28 17.43L93.04 17.43L93.04 19ZM108.66 19L107.05 19L107.05 4.45L108.72 4.45L108.72 9.82L108.86 9.82C109.24 9.25 109.89 7.95 112.02 7.95C114.77 7.95 116.68 10.13 116.68 13.57C116.68 17.04 114.77 19.22 112.05 19.22C109.94 19.22 109.24 17.92 108.86 17.32L108.66 17.32L108.66 19ZM49.95 8.09L52.27 8.09L52.27 9.51L49.95 9.51L49.95 15.87C49.95 17.29 50.65 17.52 51.39 17.52C51.76 17.52 51.99 17.46 52.13 17.43L52.47 18.94C52.25 19.02 51.85 19.14 51.22 19.14C49.8 19.14 48.27 18.23 48.27 16.32L48.27 9.51L46.62 9.51L46.62 8.09L48.27 8.09L48.27 5.47L49.95 5.47L49.95 8.09ZM79.21 8.09L81.54 8.09L81.54 9.51L79.21 9.51L79.21 15.87C79.21 17.29 79.91 17.52 80.65 17.52C81.02 17.52 81.25 17.46 81.39 17.43L81.74 18.94C81.51 19.02 81.11 19.14 80.49 19.14C79.07 19.14 77.53 18.23 77.53 16.32L77.53 9.51L75.88 9.51L75.88 8.09L77.53 8.09L77.53 5.47L79.21 5.47L79.21 8.09ZM63.61 16.47C63.1 18.12 61.48 19.22 59.26 19.22C56.11 19.22 54.17 16.98 54.17 13.62C54.17 10.27 56.14 7.95 59.09 7.95C61.36 7.95 63.78 9.34 63.78 13.4L63.78 14.11L55.86 14.11C55.94 16.45 57.29 17.72 59.26 17.72C60.58 17.72 61.56 17.15 61.99 16.01L63.61 16.47ZM70.2 7.95C72.36 7.95 73.54 8.98 74.06 10.53L72.56 10.95C72.27 10.2 71.66 9.39 70.2 9.39C68.86 9.39 67.87 10.07 67.87 11.01C67.87 11.85 68.45 12.28 69.74 12.6L71.36 13C73.31 13.48 74.26 14.43 74.26 15.95C74.26 17.84 72.54 19.22 70 19.22C67.77 19.22 66.24 18.23 65.85 16.38L67.44 15.98C67.74 17.15 68.6 17.75 69.97 17.75C71.54 17.75 72.53 16.98 72.53 16.04C72.53 15.29 72.01 14.76 70.91 14.51L69.09 14.08C67.09 13.61 66.19 12.6 66.19 11.1C66.19 9.25 67.9 7.95 70.2 7.95ZM101.99 17.52C101.65 18.23 100.65 19.25 98.75 19.25C96.68 19.25 95.03 18.03 95.03 15.9C95.03 13.4 97.24 12.95 99.26 12.69C101.25 12.43 102.07 12.51 102.07 11.7L102.07 11.64C102.07 10.24 101.32 9.42 99.77 9.42C98.18 9.42 97.3 10.27 96.93 11.07L95.34 10.5C96.19 8.51 98.07 7.95 99.71 7.95C101.11 7.95 103.75 8.34 103.75 11.81L103.75 19L102.07 19L102.07 17.52L101.99 17.52ZM59.09 9.45C57.17 9.45 55.97 10.96 55.86 12.66L62.08 12.66C62.08 10.81 60.91 9.45 59.09 9.45ZM111.82 9.45C109.77 9.45 108.69 11.1 108.69 13.54C108.69 16.01 109.8 17.72 111.82 17.72C113.92 17.72 115 15.87 115 13.54C115 11.24 113.95 9.45 111.82 9.45ZM96.71 15.98C96.71 17.15 97.67 17.75 99.01 17.75C100.99 17.75 102.07 16.41 102.07 15.04L102.07 13.51C101.79 13.85 99.89 14.05 99.18 14.14C97.87 14.31 96.71 14.7 96.71 15.98Z" fill="#FFFFFF" fill-opacity="1.000000" fill-rule="evenodd"/>
</svg>
